<svg xmlns="http://www.w3.org/2000/svg" width="20.63" height="20.656" viewBox="0 0 20.63 20.656">
  <metadata><?xpacket begin="﻿" id="W5M0MpCehiHzreSzNTczkc9d"?>
<x:xmpmeta xmlns:x="adobe:ns:meta/" x:xmptk="Adobe XMP Core 5.6-c138 79.159824, 2016/09/14-01:09:01        ">
   <rdf:RDF xmlns:rdf="http://www.w3.org/1999/02/22-rdf-syntax-ns#">
      <rdf:Description rdf:about=""/>
   </rdf:RDF>
</x:xmpmeta>
                                                                                                    
                                                                                                    
                                                                                                    
                                                                                                    
                                                                                                    
                                                                                                    
                                                                                                    
                                                                                                    
                                                                                                    
                                                                                                    
                                                                                                    
                                                                                                    
                                                                                                    
                                                                                                    
                                                                                                    
                                                                                                    
                                                                                                    
                                                                                                    
                                                                                                    
                                                                                                    
                           
<?xpacket end="w"?></metadata>
<defs>
    <style>
      .cls-1 {
        fill-rule: evenodd;
      }
    </style>
  </defs>
  <path id="search" class="cls-1" d="M1559.69,95l-4.83-4.715a8.534,8.534,0,0,0-.29-11.993,9.072,9.072,0,0,0-12.61,0,8.561,8.561,0,0,0,0,12.309,9.042,9.042,0,0,0,11.64.8l4.89,4.764a0.837,0.837,0,0,0,.6.243,0.871,0.871,0,0,0,.6-0.243A0.814,0.814,0,0,0,1559.69,95Zm-16.53-5.57a6.942,6.942,0,0,1,0-9.964,7.33,7.33,0,0,1,10.2,0,6.914,6.914,0,0,1,0,9.964A7.335,7.335,0,0,1,1543.16,89.433Z" transform="translate(-1539.34 -75.75)"/>
</svg>
