<?xml version="1.0" encoding="utf-8"?>
<!-- Generator: Adobe Illustrator 23.0.1, SVG Export Plug-In . SVG Version: 6.00 Build 0)  -->
<svg version="1.1" id="Режим_изоляции"
	 xmlns="http://www.w3.org/2000/svg" xmlns:xlink="http://www.w3.org/1999/xlink" x="0px" y="0px" viewBox="0 0 272 171"
	 style="enable-background:new 0 0 272 171;" xml:space="preserve">
<path d="M199.25,112.54c-5.57,0-10.69-1.88-14.79-5.02c4.18-5.31,6.68-11.99,6.68-19.27c0-7.28-2.5-13.97-6.68-19.27
	c4.1-3.15,9.22-5.02,14.79-5.02c13.42,0,24.3,10.88,24.3,24.3C223.54,101.66,212.67,112.54,199.25,112.54 M145.18,107.51
	c4.18-5.31,6.68-11.99,6.68-19.27c0-7.28-2.5-13.97-6.68-19.27c4.1-3.15,9.22-5.02,14.79-5.02c5.57,0,10.69,1.88,14.79,5.02
	c-4.18,5.3-6.68,11.99-6.68,19.27c0,7.28,2.5,13.97,6.68,19.27c-4.1,3.15-9.22,5.02-14.79,5.02
	C154.41,112.54,149.28,110.66,145.18,107.51 M105.91,107.51c4.18-5.3,6.68-11.99,6.68-19.27c0-7.28-2.5-13.97-6.68-19.27
	c4.1-3.15,9.22-5.02,14.79-5.02c5.57,0,10.69,1.88,14.79,5.02c-4.18,5.31-6.68,11.99-6.68,19.27c0,7.28,2.5,13.97,6.68,19.27
	c-4.1,3.15-9.22,5.02-14.79,5.02C115.13,112.54,110.01,110.66,105.91,107.51 M57.13,88.24c0-13.42,10.88-24.3,24.3-24.3
	c5.57,0,10.69,1.88,14.79,5.02c-4.18,5.31-6.68,11.99-6.68,19.27c0,7.28,2.5,13.97,6.68,19.27c-4.1,3.15-9.22,5.02-14.79,5.02
	C68.01,112.54,57.13,101.66,57.13,88.24 M101.06,102.55c-2.93-4.01-4.66-8.96-4.66-14.3c0-5.35,1.73-10.29,4.66-14.31
	c2.93,4.02,4.66,8.96,4.66,14.31C105.73,93.59,103.99,98.53,101.06,102.55 M140.34,102.54c-2.93-4.01-4.66-8.95-4.66-14.3
	c0-5.35,1.73-10.29,4.66-14.3c2.93,4.01,4.66,8.95,4.66,14.3C145,93.59,143.27,98.53,140.34,102.54 M179.61,102.55
	c-2.93-4.01-4.66-8.96-4.66-14.3c0-5.35,1.73-10.29,4.66-14.31c2.93,4.02,4.66,8.96,4.66,14.31
	C184.27,93.59,182.54,98.53,179.61,102.55 M199.25,57.08c-7.44,0-14.28,2.61-19.64,6.97c-5.36-4.36-12.19-6.97-19.64-6.97
	c-7.44,0-14.28,2.61-19.64,6.97c-5.36-4.36-12.19-6.97-19.64-6.97c-7.44,0-14.28,2.61-19.63,6.97c-5.36-4.36-12.19-6.97-19.64-6.97
	c-17.21,0-31.17,13.95-31.17,31.17c0,17.21,13.95,31.17,31.17,31.17c7.44,0,14.28-2.61,19.64-6.97c5.36,4.36,12.19,6.97,19.63,6.97
	c7.45,0,14.28-2.61,19.64-6.97c5.36,4.36,12.19,6.97,19.64,6.97c7.44,0,14.28-2.61,19.64-6.97c5.36,4.36,12.19,6.97,19.64,6.97
	c17.21,0,31.17-13.96,31.17-31.17C230.41,71.03,216.46,57.08,199.25,57.08"/>
</svg>
