<?xml version="1.0" encoding="utf-8"?>
<!-- Generator: Adobe Illustrator 23.0.1, SVG Export Plug-In . SVG Version: 6.00 Build 0)  -->
<svg version="1.1" id="Layer_1" xmlns="http://www.w3.org/2000/svg" xmlns:xlink="http://www.w3.org/1999/xlink" x="0px" y="0px"
	 viewBox="0 0 116.22 116.22" style="enable-background:new 0 0 116.22 116.22;" xml:space="preserve">
<path d="M114.8,58.11c0-31.31-25.39-56.69-56.69-56.69S1.42,26.8,1.42,58.11S26.8,114.8,58.11,114.8c0.33,0,0.66-0.01,1-0.01V70.66
	H46.93V56.46h12.18V46.02c0-12.11,7.4-18.71,18.2-18.71c5.17,0,9.62,0.39,10.92,0.56v12.66h-7.45c-5.88,0-7.02,2.79-7.02,6.89v9.04
	h14.06l-1.83,14.19H73.76v41.96C97.46,105.82,114.8,83.99,114.8,58.11z"/>
</svg>
