<?xml version="1.0" encoding="utf-8"?>
<!-- Generator: Adobe Illustrator 23.0.1, SVG Export Plug-In . SVG Version: 6.00 Build 0)  -->
<svg version="1.1"
	 id="Layer_1" xmlns:cc="http://creativecommons.org/ns#" xmlns:dc="http://purl.org/dc/elements/1.1/" xmlns:inkscape="http://www.inkscape.org/namespaces/inkscape" xmlns:rdf="http://www.w3.org/1999/02/22-rdf-syntax-ns#" xmlns:sodipodi="http://sodipodi.sourceforge.net/DTD/sodipodi-0.dtd" xmlns:svg="http://www.w3.org/2000/svg"
	 xmlns="http://www.w3.org/2000/svg" xmlns:xlink="http://www.w3.org/1999/xlink" x="0px" y="0px" viewBox="0 0 100 125"
	 style="enable-background:new 0 0 100 125;" xml:space="preserve">
<g transform="translate(0,-952.36218)">
	<path d="M55.69,966.37c-5.46,3.61-10.41,12.22-11.66,17.87c-0.77,3.72-0.46,7.4,0.12,11.19c-2.29-2.41-3.84-5.49-4.16-10.22
		c-0.05-0.74-0.54-1.43-1.23-1.72s-1.53-0.15-2.08,0.34C25.74,993.38,19,1007.81,19,1021.77c0,15.39,8.74,25.39,21.47,32.34
		c0.73,0.4,1.72,0.28,2.33-0.29c0.61-0.57,0.8-1.55,0.45-2.31c-0.68-1.5-1.25-3.03-1.25-4.75c0-5.58,3.52-11.4,8-14.03
		c4.48,2.62,8,8.45,8,14.03c0,1.71-0.57,3.25-1.25,4.75c-0.35,0.76-0.16,1.73,0.45,2.31c0.61,0.57,1.6,0.69,2.33,0.29
		c12.74-6.95,21.47-16.94,21.47-32.34c0-13.32-6.54-22.08-12.5-29.72S57.3,978,58,968.5C58.09,967.3,56.88,966.18,55.69,966.37
		L55.69,966.37z M54.19,973.37c1.09,8.41,6.21,14.81,11.16,21.15c5.92,7.59,11.66,15.21,11.66,27.25c0,12.13-5.78,19.9-15.16,26.06
		c0.03-0.37,0.16-0.68,0.16-1.06c0-7.62-4.58-15.1-11.16-18.22c-0.53-0.24-1.16-0.24-1.69,0c-6.57,3.12-11.16,10.6-11.16,18.22
		c0,0.38,0.12,0.67,0.16,1.03c-9.36-6.17-15.16-13.92-15.16-26.03c0-11.53,5.23-23.7,13.75-32.4c1.44,5.94,4.93,10,9.19,12.69
		c0.66,0.43,1.58,0.41,2.23-0.05s0.98-1.31,0.8-2.08c-1.22-5.77-1.94-10.37-1-14.9C48.71,981.44,50.54,977.74,54.19,973.37z"/>
</g>
</svg>
