<?xml version="1.0" encoding="utf-8"?>
<!-- Generator: Adobe Illustrator 23.0.1, SVG Export Plug-In . SVG Version: 6.00 Build 0)  -->
<svg version="1.1" id="Слой_1" xmlns="http://www.w3.org/2000/svg" xmlns:xlink="http://www.w3.org/1999/xlink" x="0px" y="0px"
	 viewBox="0 0 119.06 119.06" style="enable-background:new 0 0 119.06 119.06;" xml:space="preserve">
<path d="M70.38,59.53c0,5.99-4.86,10.85-10.85,10.85s-10.85-4.86-10.85-10.85s4.86-10.85,10.85-10.85S70.38,53.53,70.38,59.53z"/>
<path d="M84.91,40.33c-0.52-1.41-1.35-2.69-2.44-3.74c-1.05-1.08-2.33-1.91-3.74-2.44c-1.15-0.45-2.87-0.98-6.04-1.12
	c-3.43-0.16-4.46-0.19-13.16-0.19c-8.69,0-9.72,0.03-13.16,0.19c-3.17,0.15-4.9,0.68-6.04,1.12c-1.41,0.52-2.69,1.35-3.74,2.44
	c-1.08,1.05-1.91,2.33-2.44,3.74c-0.45,1.15-0.98,2.87-1.12,6.05c-0.16,3.43-0.19,4.46-0.19,13.16c0,8.69,0.03,9.72,0.19,13.16
	c0.14,3.17,0.67,4.9,1.12,6.04c0.52,1.41,1.35,2.69,2.44,3.74c1.05,1.08,2.33,1.91,3.74,2.44c1.15,0.45,2.87,0.98,6.05,1.12
	c3.43,0.16,4.46,0.19,13.15,0.19c8.69,0,9.72-0.03,13.16-0.19c3.17-0.14,4.9-0.67,6.05-1.12c2.84-1.1,5.08-3.34,6.18-6.18
	c0.45-1.15,0.98-2.87,1.12-6.04c0.16-3.43,0.19-4.46,0.19-13.16c0-8.69-0.03-9.72-0.19-13.16C85.88,43.2,85.35,41.48,84.91,40.33z
	 M59.53,76.24c-9.23,0-16.72-7.48-16.72-16.72s7.48-16.72,16.72-16.72c9.23,0,16.72,7.48,16.72,16.72S68.76,76.24,59.53,76.24z
	 M76.9,46.06c-2.16,0-3.91-1.75-3.91-3.91c0-2.16,1.75-3.91,3.91-3.91c2.16,0,3.91,1.75,3.91,3.91
	C80.81,44.31,79.06,46.06,76.9,46.06z"/>
<path d="M59.53,2.83c-31.31,0-56.69,25.39-56.69,56.69s25.39,56.69,56.69,56.69s56.69-25.39,56.69-56.69S90.83,2.83,59.53,2.83z
	 M91.89,72.95c-0.16,3.47-0.71,5.83-1.51,7.9c-1.69,4.37-5.15,7.83-9.52,9.52c-2.07,0.8-4.44,1.35-7.9,1.51
	c-3.47,0.16-4.58,0.2-13.42,0.2c-8.84,0-9.95-0.04-13.42-0.2c-3.46-0.16-5.83-0.71-7.9-1.51c-2.17-0.82-4.14-2.1-5.77-3.76
	c-1.66-1.63-2.94-3.59-3.75-5.77c-0.8-2.07-1.36-4.44-1.51-7.9c-0.16-3.47-0.2-4.58-0.2-13.42s0.04-9.95,0.2-13.42
	c0.16-3.47,0.71-5.83,1.51-7.9c0.82-2.17,2.1-4.14,3.76-5.77c1.63-1.66,3.59-2.94,5.77-3.76c2.07-0.8,4.44-1.35,7.9-1.51
	c3.47-0.16,4.58-0.2,13.42-0.2s9.95,0.04,13.42,0.2c3.47,0.16,5.83,0.71,7.9,1.51c2.17,0.82,4.14,2.1,5.77,3.76
	c1.66,1.63,2.94,3.59,3.75,5.77c0.81,2.07,1.36,4.44,1.51,7.9c0.16,3.47,0.2,4.58,0.2,13.42S92.04,69.48,91.89,72.95z"/>
</svg>
