<?xml version="1.0" encoding="utf-8"?>
<!-- Generator: Adobe Illustrator 23.0.1, SVG Export Plug-In . SVG Version: 6.00 Build 0)  -->
<svg version="1.1" id="Режим_изоляции"
	 xmlns="http://www.w3.org/2000/svg" xmlns:xlink="http://www.w3.org/1999/xlink" x="0px" y="0px" viewBox="0 0 244 188"
	 style="enable-background:new 0 0 244 188;" xml:space="preserve">
<style type="text/css">
	.st0{fill:#262020;}
</style>
<g>
	<path d="M61.49,69.13c0.16,0.01,0.34,0.01,0.56,0.01c0.88,0.02,1.87-0.35,2.52-0.65c0.47-0.22,0.77-0.41,0.73-0.41
		c-0.61-0.01-1.58-0.02-1.95-0.02c-1.58,0-2.41,0.9-2.42,0.98C60.93,69.1,61.15,69.12,61.49,69.13z M208.67,111.44
		c-0.9-2-3.38-1.35-3.38-1.35c-1.17,0.25-2.51,1.59-4.5,2.18c-4.27,1.26-7.67-0.21-7.67-0.21c-6.57-2.84-27.68-14.93-38.42-20.21
		c0,0-12.48-5.78-30.58-12.95c0,0-35.57-15.18-59.31-13.93c0,0-12.66,0.33-16.64,5.92c0,0-0.68,0.77-0.29,1.6
		c0,0,0.07,0.24-0.08,0.4c0,0-2.13,1.91-3.22,3.61c-0.38,0.62-0.75,1.61-0.02,2.38c0,0,0.35,0.27,0.5,0.51
		c0.31,0.51,0.6,1.26,0.98,1.71c0.55,0.66,1.67,1.8,3.25,1.53c0.7-0.12,0.71-0.32,0.71-0.32c0.79,0.78,2.07,0.76,2.07,0.76
		c-0.16-0.5-0.71-1.49-0.79-2.08c-0.08-0.65,0.11-1.28,0.11-1.28c0.22-0.74,0.67-1.68,1.15-2.15c0.43-0.42,1.52-0.91,2.4-0.3
		c0.7,0.5,1.54,2.12,0.84,4.44c-0.03,0.18-0.8,1.82-1.62,2.07c0,0-0.08,0.03-0.23,0.03c-0.56,0-1.59-0.58-1.59-0.58
		s-0.03,0.15,0.12,0.75c0.09,0.34,0.21,0.72,0.31,1.01c0,0-0.2,0.36-0.33,0.57c-0.17,0.22-0.37,1.04,0.06,1.35
		c0,0,1.83,1.24,3.6,1.35c1.22,0.07,1.69-0.75,1.69-0.75c0.9-1.24,1.58-2.3,2.53-3.16c2.59-2.38,6.24-3.01,6.24-3.01
		c0.24-0.03,4.22-1.14,10.98,4.27c-1.93,0.16-4.23,0.62-5.99,0.93c-5.01,0.89-8.22,5.62-9.16,7.54c-2.43,5.02,2.54,6.75,2.54,6.75
		c0.05-0.04,4.75-0.42,7.01-5.41c0,0,0.83-2.21,3.04-1.5c1.44,0.47,14.19,4.92,17.06,5.68c0,0,8.53,2.22,11.75-1.7
		c5.14,1.69,9.96,2.5,22.59,0.87c2.19-0.29,3.92-0.22,3.92-0.22c2.95,0.22,5.64,2.21,6.46,3.51c3.32,5.31,7.53,15.88,22.16,14.59
		l6.61-0.6c4.04-0.24,7.32-0.4,10.66,1.36c1.45,0.76,2.26,1.04,4.72,3.39c3.37,3.21,6.47,6.67,10.6,4.78
		c1.46-0.67,3.11-3.29,3.11-3.29c-0.16-1.19-0.69-2.34-2-3.32c3.75,0.89,12.2,1.47,15.47-4.25
		C208.9,113.34,208.99,112.15,208.67,111.44z M207.34,114.13c-0.32,1.11-1.9,2.59-3.83,3.44c-2.02,0.9-6.24,1.14-8.67,0.74
		c-0.01,0-4.72-0.48-8.85-4.79c-1.3-1.36-2.9-2.91-4.38-4.43c-0.65-0.68-2.25-2.28-4.91-2.64c-2.77-0.38-9.55-0.56-12.09-1.4
		c-1.7-0.57-3.76-1.72-6.49-5.77c-1.31-1.94-2.25-2.47-4.04-3.6c0,0,1.37,1.09,2.15,2.46c1.12,2,1.69,3.46,2.3,4.52
		c0.61,1.07,1.3,2.02,2.34,2.85c1.29,1.04,2.1,1.24,3.51,1.47c1.34,0.22,5.88,0.18,9.77,0.12c3.83-0.06,5.53,1.18,6.79,2.23
		c1.17,0.98,3.16,3.78,4.39,5.01c1.46,1.46,2.53,2.94,5.42,4.4c1,0.51,2.65,1.76,2.56,2.96c-1.3,1.3-2.91,1.64-6.78,0.61
		c0.27,0.27,2.3,2.4,5.77,1.39c-1.05,0.87-2.07,1.25-3.14,1.19c-3.63-0.2-7.18-4.67-9.17-6.32c-1.51-1.25-1.69-1.57-4.26-3.35
		c-3.91-2.71-12.67-1.94-12.67-1.94l-6.43,0.33c-12.52,0.95-17.78-10.15-19.17-12.46c-0.48-0.8-0.92-1.45-1.33-1.98
		c-0.64-0.85-4.06-5.29-7.52-6.75c0,0,3.4,2.93,3.2,4.86c0,0-1.41-0.66-5.24-0.11c-16.5,2.35-22.11-1.78-22.11-1.78
		c0.77-3.3-1.54-6.7-1.54-6.7c1.27,0.4,9.38,3.14,17.09,1.58c0,0-12.53,0.07-21.32-6.94c0,0,5.47,6.85,4.17,11.34
		c0,0-0.9,4.78-10.43,2.85c-1.02-0.2-2.21-0.54-16.49-4.5c-3.35-1-4.51,0.6-5.12,1.56c-0.03,1.41-1.69,3.06-2.53,3.57
		c-4.42-0.8-2.66-4.89-2.66-4.89c-2.78,3.97,0.13,5.73,1.05,5.86c-0.55,0.27-1.07,0.46-1.52,0.62c0,0-3.61-2.15-1.59-5.67
		c2.81-4.91,5.68-6.48,10.93-6.96c2.3-0.22,4.21-0.38,5.67-0.18c3.81,0.53,6.2,2.68,11.91,3.23c-12.11-3.57-12.14-10.58-12.18-10.71
		c0,0,0-0.01,0-0.01c-0.67,2.31-0.3,4.26,0.29,5.91c-0.17-0.06-2.82-1.8-3.83-2.41c-4.35-2.66-7.78-3.12-7.78-3.12
		c-1.44-0.18-2.11-1.94-2.11-1.94c-0.05-0.09-0.1-0.17-0.15-0.26c-2.01-3.43-3.99-3.49-3.99-3.49c1.12,1.52,1.14,3.68,1.14,3.68
		c0.59,4.26-4.22,5.57-4.22,5.57c-2.95,3.75-2.8,3.82-3.46,3.92c-0.66,0.09-2.1-0.64-2.1-0.64c-0.24-0.35,0.1-0.7,0.1-0.7
		c0.55-0.44,1.01-0.88,1.01-0.88c3.12-3.19,3.5-4.75,3.11-6.82c-0.79-4.15-3.76-3.67-3.76-3.67c-1.4,0.08-2.03,1.33-2.03,1.33
		c-0.49,0.77-1.55,3.11-1.55,3.11c-0.64,1.4-1.3,1.71-1.64,1.77c-0.15,0.03-0.42,0.02-0.51,0.02c-1-0.04-1.77-0.96-1.77-0.96
		c-0.05-0.05-0.09-0.1-0.12-0.14c-0.92-0.99-0.25-2.27-0.25-2.27c1.24-2.88,3.64-3.3,3.96-3.34c0.33-0.04,1.44-0.2,1.44-0.2
		c3.05-0.51,4.49-3.69,4.49-3.69c-2.06-0.02-3.06,0.11-3.06,0.11c-2.02,0.36-2.71,2.74-2.71,2.73c-1.71,0.39-1.67-1.08-1.37-1.53
		c0.27-0.42,1.28-2.18,7.86-3.71c0,0,3.25-0.98,10.18-0.66c0,0,0,0-0.29,0.53c-0.61,1.16-3.05,3.55-7.07,2.67
		c0,0,0.04,1.79,4.4,2.43c0,0,3.94,0.71,10.63,6.08c0,0-3.2-6.35-8.63-8c0,0-0.68-0.14-0.35-0.57c0,0,3.35-3.11,7.67-3.24
		c0,0,14.62-1.41,22.73,9.76c0,0-2.45-4.74-4.3-6.81c0,0,8.49,2.4,21.54,6.94c0,0,8.91,3.16,14.61,5.41
		c7.69,3.03,26.93,10.52,39.2,17.21c2.19,1.19,24.38,12.77,24.38,12.77c6.15,2.76,10.4,1.08,10.4,1.08
		c1.38-0.53,3.89-2.45,4.99-1.36C207.53,112.63,207.61,113.39,207.34,114.13z M51.03,73.04c0,0,0.13-0.38,0.17-0.48
		c0.04-0.09,0.4-1.09,1.31-1.18c0,0,0.53-0.03,1.33-0.03c0,0-0.4,1.27-1.95,1.54C51.88,72.89,51.28,73.03,51.03,73.04z"/>
	<path id="FS_Master_Logo_1_" class="st0" d="M60.03,144.67h13.31l-6.66-7.74L60.03,144.67z M75.02,146.62H58.35l-2.76,3.22h-3.26
		l13.11-15.11h5.54l13.12,15.11h-6.31L75.02,146.62z M158.42,144.67h13.31l-6.67-7.74L158.42,144.67z M173.41,146.62h-16.67
		l-2.76,3.22h-3.26l13.11-15.11h5.54l13.12,15.11h-6.31L173.41,146.62z M49.76,134.73v7.37c0,2.38-0.55,3.83-1.68,4.99
		c-1.98,2.02-5.77,2.75-11.13,2.75H25.64v-2.03h10.41c3.2,0,5.36-0.53,6.66-1.81c0.99-0.97,1.43-2.33,1.43-4.35v-6.92H49.76z
		 M108.59,147.82v-4.92h5.6v6.94H97.91c-3.05,0-5.46-0.36-7.27-1.09c-3.03-1.22-4.41-3.45-4.41-6.49c0-2.88,1.51-4.87,3.42-5.95
		c2.04-1.14,4.33-1.58,8.16-1.58h15.81v2.02H99.56c-3.01,0-4.65,0.45-5.9,1.47c-1.11,0.9-1.7,2.25-1.7,4.06
		c0,1.87,0.62,3.25,1.81,4.16c1.25,0.95,2.94,1.38,5.84,1.38L108.59,147.82z M206.93,144.51c2.11-0.07,3.91-0.39,5.29-1.13
		c1.43-0.77,2.12-2.23,2.12-3.74c0-2.02-0.9-3.31-2.55-4.04c-1.46-0.64-3.27-0.86-6.86-0.86h-17.44v15.11h5.62v-5.24h7.39l8.43,5.24
		h6.85L206.93,144.51z M204.2,136.64c2.11,0,3.04,0.2,3.68,0.68c0.61,0.46,0.83,1.15,0.83,2.24v0.28c0,0.98-0.23,1.77-0.95,2.27
		c-0.71,0.49-1.69,0.6-3.49,0.6h-11.15v-6.07H204.2z M148.24,134.73v7.53c0,1.95-0.21,3.49-1.2,4.78c-1.6,2.1-4.53,3.3-12.7,3.3
		h-0.08c-8.13,0-11.08-1.21-12.67-3.3c-0.98-1.29-1.19-2.83-1.19-4.78v-7.53h5.62v7.31c0,1.96,0.25,3.12,0.97,4.13
		c1.22,1.71,3.32,2.33,7.09,2.33h0.48c3.95,0,5.88-0.62,7.09-2.34c0.72-1.01,0.97-2.22,0.97-4.12v-7.32H148.24z"/>
</g>
</svg>
