<?xml version="1.0" encoding="utf-8"?>
<!-- Generator: Adobe Illustrator 23.0.1, SVG Export Plug-In . SVG Version: 6.00 Build 0)  -->
<svg version="1.1" id="Слой_1" xmlns="http://www.w3.org/2000/svg" xmlns:xlink="http://www.w3.org/1999/xlink" x="0px" y="0px"
	 viewBox="0 0 116.21 95.61" style="enable-background:new 0 0 116.21 95.61;" xml:space="preserve">
<style type="text/css">
	.st0{fill-rule:evenodd;clip-rule:evenodd;}
</style>
<g>
	<path class="st0" d="M43.52,76.91c-0.47,0-0.82,0.17-1.07,0.5c-0.25,0.33-0.37,0.9-0.37,1.7v3.14c0,0.8,0.12,1.37,0.37,1.7
		c0.25,0.33,0.6,0.5,1.07,0.5c1.01,0,1.52-0.73,1.52-2.2v-3.14C45.04,77.64,44.53,76.91,43.52,76.91z"/>
	<path class="st0" d="M32.39,76.91c-0.48,0-0.84,0.16-1.08,0.49c-0.24,0.33-0.36,0.89-0.36,1.69v3.16c0,0.81,0.12,1.38,0.36,1.71
		c0.24,0.33,0.6,0.49,1.08,0.49c0.49,0,0.86-0.16,1.1-0.49c0.24-0.33,0.36-0.9,0.36-1.71v-3.16c0-0.8-0.12-1.36-0.36-1.69
		C33.25,77.07,32.88,76.91,32.39,76.91z"/>
	<path class="st0" d="M93.02,76.91c-0.48,0-0.84,0.16-1.08,0.49c-0.24,0.33-0.36,0.89-0.36,1.69v3.16c0,0.81,0.12,1.38,0.36,1.71
		c0.24,0.33,0.6,0.49,1.08,0.49c0.49,0,0.86-0.16,1.1-0.49c0.24-0.33,0.36-0.9,0.36-1.71v-3.16c0-0.8-0.12-1.36-0.36-1.69
		C93.88,77.07,93.51,76.91,93.02,76.91z"/>
	<path class="st0" d="M12.09,76.91c-1.01,0-1.52,0.73-1.52,2.2v3.14c0,1.47,0.51,2.2,1.52,2.2c0.47,0,0.82-0.17,1.07-0.5
		c0.25-0.33,0.37-0.9,0.37-1.7v-3.14c0-0.8-0.12-1.37-0.37-1.7C12.91,77.07,12.56,76.91,12.09,76.91z"/>
	<path class="st0" d="M0,65.61v30h116.21v-30H0z M14.91,82.39c0,0.79-0.13,1.47-0.38,2.04c-0.37,0.84-1.06,1.26-2.06,1.26
		c-0.88,0-1.51-0.33-1.88-0.98v5.28H9.21V75.75h1.38v0.96c0.4-0.69,1.04-1.04,1.92-1.04c0.97,0,1.65,0.43,2.02,1.3
		c0.25,0.57,0.38,1.23,0.38,1.96V82.39z M24.38,77.09h-0.1c-0.05-0.01-0.13-0.02-0.24-0.03c-0.11-0.01-0.21-0.01-0.32-0.01
		c-1.16,0-1.74,0.6-1.74,1.8v6.72H20.6v-9.82h1.38v1.04c0.37-0.72,1.05-1.08,2.04-1.08l0.36,0.02V77.09z M35.23,82.33
		c0,1.13-0.25,1.98-0.75,2.53c-0.5,0.55-1.2,0.83-2.09,0.83c-0.88,0-1.57-0.28-2.07-0.83c-0.5-0.55-0.75-1.4-0.75-2.53v-3.32
		c0-1.12,0.25-1.96,0.75-2.51c0.5-0.55,1.19-0.83,2.07-0.83s1.57,0.28,2.08,0.83c0.51,0.55,0.76,1.39,0.76,2.51V82.33z M46.4,85.57
		h-1.38v-0.86c-0.37,0.65-1,0.98-1.88,0.98c-1,0-1.69-0.42-2.06-1.26c-0.25-0.57-0.38-1.25-0.38-2.04v-3.46
		c0-0.73,0.13-1.39,0.38-1.96c0.37-0.87,1.05-1.3,2.02-1.3c0.88,0,1.52,0.35,1.92,1.04v-5.38h1.38V85.57z M57.69,85.57h-1.38v-0.94
		c-0.36,0.68-0.98,1.02-1.86,1.02c-0.75,0-1.3-0.23-1.67-0.68s-0.55-1.07-0.55-1.86v-7.36h1.38v7.04c0,0.56,0.1,0.96,0.29,1.2
		s0.51,0.36,0.95,0.36c0.97,0,1.46-0.53,1.46-1.58v-7.02h1.38V85.57z M68.11,84.91c-0.47,0.52-1.13,0.78-2,0.78
		c-0.83,0-1.49-0.28-1.99-0.84c-0.5-0.56-0.75-1.41-0.75-2.54v-3.26c0-1.13,0.25-1.98,0.75-2.54c0.5-0.56,1.16-0.84,1.99-0.84
		c1.76,0,2.67,0.96,2.72,2.88h-1.36c-0.04-0.59-0.16-1.01-0.36-1.26c-0.2-0.25-0.53-0.38-1-0.38c-0.44,0-0.78,0.17-1.01,0.5
		c-0.23,0.33-0.35,0.9-0.35,1.7v3.12c0,0.81,0.12,1.39,0.35,1.72c0.23,0.33,0.57,0.5,1.01,0.5c0.45,0,0.79-0.14,1-0.41
		c0.21-0.27,0.33-0.7,0.36-1.27h1.38C68.82,83.67,68.58,84.39,68.11,84.91z M77.57,76.83h-1.38v6.42c0,0.39,0.07,0.66,0.2,0.82
		c0.13,0.16,0.35,0.24,0.66,0.24h0.52v1.26h-0.76c-0.64,0-1.13-0.19-1.48-0.56c-0.35-0.37-0.52-0.91-0.52-1.6v-6.58h-0.94v-1.08
		h0.94v-3.04h1.38v3.04h1.38V76.83z M84.49,85.57h-1.42v-9.82h1.42V85.57z M84.45,72.84c-0.19,0.19-0.41,0.29-0.66,0.29
		s-0.48-0.09-0.67-0.28s-0.29-0.41-0.29-0.66c0-0.27,0.09-0.49,0.28-0.68c0.19-0.19,0.41-0.28,0.66-0.28c0.27,0,0.49,0.09,0.68,0.27
		c0.19,0.18,0.28,0.4,0.28,0.65C84.73,72.41,84.64,72.64,84.45,72.84z M95.86,82.33c0,1.13-0.25,1.98-0.75,2.53
		c-0.5,0.55-1.2,0.83-2.09,0.83c-0.88,0-1.57-0.28-2.07-0.83c-0.5-0.55-0.75-1.4-0.75-2.53v-3.32c0-1.12,0.25-1.96,0.75-2.51
		c0.5-0.55,1.19-0.83,2.07-0.83s1.57,0.28,2.08,0.83c0.51,0.55,0.76,1.39,0.76,2.51V82.33z M107,85.57h-1.38v-7.04
		c0-0.57-0.1-0.98-0.29-1.22s-0.51-0.36-0.95-0.36c-0.97,0-1.46,0.53-1.46,1.58v7.04h-1.38v-9.82h1.38v0.94
		c0.36-0.68,0.98-1.02,1.86-1.02c0.75,0,1.3,0.23,1.67,0.68c0.37,0.45,0.55,1.07,0.55,1.84V85.57z"/>
</g>
<g>
	<path d="M0,30v-6h15v-6H0V0h21v6.01H6v6h15v18H0z"/>
	<path d="M23.8,30V0h21v30H23.8z M38.8,24v-18h-9v18H38.8z"/>
	<path d="M47.6,30V0h6v24h9V0h6v30H47.6z"/>
	<path d="M71.41,30V0h6l9,18V0h6v30h-6l-9-18v18H71.41z"/>
	<path d="M95.21,30V0h15l6,6.01v18l-6,6H95.21z M107.21,24l3-3V9l-3-3h-6.01v18H107.21z"/>
	<path d="M0,62.8v-30h21v6.01H6v18h15v6H0z"/>
	<path d="M23.8,62.8v-30h6v12h9v-12h6v30h-6v-12h-9v12H23.8z"/>
	<path d="M47.6,62.8v-30h21v6.01h-15v6h15v6h-15v6h15v6H47.6z"/>
	<path d="M71.41,62.8v-30h21v6.01h-15v18h15v6H71.41z"/>
	<path d="M95.21,62.8v-30h6v12h3l6-12h6l-7.5,15l7.5,15h-6l-6-12h-3v12H95.21z"/>
</g>
</svg>
