<?xml version="1.0" encoding="utf-8"?>
<!-- Generator: Adobe Illustrator 23.0.1, SVG Export Plug-In . SVG Version: 6.00 Build 0)  -->
<svg version="1.1" id="Layer_1" xmlns="http://www.w3.org/2000/svg" xmlns:xlink="http://www.w3.org/1999/xlink" x="0px" y="0px"
	 viewBox="0 0 340.16 113.39" style="enable-background:new 0 0 340.16 113.39;" xml:space="preserve">
<style type="text/css">
	.st0{fill:#231F20;}
</style>
<g>
	<path class="st0" d="M247.42,79.62h62.94v0.62h-62.94V79.62z M29.84,79.62h67.72v0.62H29.84V79.62z"/>
	<path class="st0" d="M116.64,79.6c1.92,0.42,2.81,1.12,2.81,2.46c0,1.49-1.23,2.45-2.95,2.45c-1.37,0-2.49-0.46-3.53-1.38l0.6-0.72
		c0.9,0.81,1.76,1.22,2.96,1.22c1.16,0,1.92-0.61,1.92-1.48c0-0.81-0.43-1.27-2.24-1.65c-1.99-0.43-2.9-1.08-2.9-2.5
		c0-1.38,1.2-2.37,2.84-2.37c1.26,0,2.16,0.36,3.03,1.06l-0.57,0.75c-0.8-0.65-1.6-0.94-2.49-0.94c-1.12,0-1.84,0.62-1.84,1.41
		C114.3,78.74,114.74,79.2,116.64,79.6 M137.51,75.73h0.8l2.37,7.21l2.46-7.19h1.02l-3.08,8.69h-0.83l-2.37-7.01l-2.38,7.01h-0.81
		l-3.08-8.69h1.06l2.47,7.19L137.51,75.73z M163.49,76.59h-5.27v2.95h4.71v0.89h-4.71v3.02h5.33v0.89h-6.3v-8.63h6.24V76.59z
		 M181.77,84.34h-3v-8.63h3c2.71,0,4.59,1.86,4.59,4.31C186.36,82.45,184.49,84.34,181.77,84.34 M181.77,76.61h-2.02v6.83h2.02
		c2.18,0,3.58-1.48,3.58-3.4C185.35,78.11,183.96,76.61,181.77,76.61 M207.59,76.59h-5.27v2.95h4.71v0.89h-4.71v3.02h5.33v0.89h-6.3
		v-8.63h6.24V76.59z M229.95,75.71h0.95v8.63h-0.78l-5.57-7.08v7.08h-0.95v-8.63h0.91l5.44,6.92V75.71z"/>
	<path class="st0" d="M118.51,64.93h-4.46V35.1h4.46V64.93z M140.05,64.93h-4.46V35.1h21.79v4.21h-17.33v8.99h15.49v4.17h-15.49
		V64.93z M192,64.93h-20.56V35.1h4.46v25.62H192V64.93z M257.13,57.08l-9.49-14.21v22.05h-2.19h-2.19V35.1h4.21l10.1,15.12
		l10.1-15.12h4.21v29.83h-2.23h-2.23V42.84l-9.48,14.24l-0.41,0.6L257.13,57.08z M310.39,64.93h-22.11V35.1h21.91v4.17h-17.46v8.54
		h15.62v4.17h-15.62v8.79h17.66V64.93z M100.1,64.89h-5.67L86.3,53.77h-7.25v11.12h-4.46V35.06h12.92c6.65,0,11.04,3.59,11.04,9.16
		c0,4.38-2.8,7.61-7.39,8.77L100.1,64.89z M79.05,49.65h8.18c4.1,0,6.74-2.08,6.74-5.31c0-3.22-2.44-5.07-6.7-5.07h-8.22V49.65z
		 M100.1,64.9h-5.66L86.3,53.78h-7.25V64.9H74.6V35.06h12.91c6.65,0,11.04,3.59,11.04,9.16c0,4.39-2.79,7.61-7.39,8.78L100.1,64.9z
		 M79.05,49.65h8.17c4.1,0,6.74-2.09,6.74-5.31c0-3.22-2.44-5.07-6.7-5.07h-8.21V49.65z M100.1,64.89h-5.67L86.3,53.77h-7.25v11.12
		h-4.46V35.06h12.92c6.65,0,11.04,3.59,11.04,9.16c0,4.38-2.8,7.61-7.39,8.77L100.1,64.89z M79.05,49.65h8.18
		c4.1,0,6.74-2.08,6.74-5.31c0-3.22-2.44-5.07-6.7-5.07h-8.22V49.65z M100.1,64.9h-5.66L86.3,53.78h-7.25V64.9H74.6V35.06h12.91
		c6.65,0,11.04,3.59,11.04,9.16c0,4.39-2.79,7.61-7.39,8.78L100.1,64.9z M79.05,49.65h8.17c4.1,0,6.74-2.09,6.74-5.31
		c0-3.22-2.44-5.07-6.7-5.07h-8.21V49.65z M226.91,64.93h4.9l-13.59-30.03h-3.82l-13.59,30.03h4.74l3.39-7.73h14.61L226.91,64.93z
		 M210.67,53.25l5.6-12.78l5.56,12.78H210.67z M61.21,48.24c0,9.48-7.69,17.17-17.17,17.17c-9.48,0-17.17-7.69-17.17-17.17
		c0-8.51,6.2-15.58,14.32-16.94l0.03,0.12c-6.34,2.46-10.14,8.43-10.14,15.41c0,8.91,6.29,14.03,12.96,14.03
		c6.97,0,12.63-5.65,12.63-12.63c0-5.99-4.74-10.97-10.9-10.97c-7.13,0-10.51,6.48-10.51,6.48l-0.11-0.04c0,0,3.21-9.3,12.51-9.3
		C53.39,34.41,61.21,39.09,61.21,48.24"/>
</g>
</svg>
