<?xml version="1.0" encoding="utf-8"?>
<!-- Generator: Adobe Illustrator 23.0.1, SVG Export Plug-In . SVG Version: 6.00 Build 0)  -->
<svg version="1.1" id="Layer_1" xmlns="http://www.w3.org/2000/svg" xmlns:xlink="http://www.w3.org/1999/xlink" x="0px" y="0px"
	 viewBox="0 0 288 138" style="enable-background:new 0 0 288 138;" xml:space="preserve">
<style type="text/css">
	.st0{fill-rule:evenodd;clip-rule:evenodd;}
</style>
<g>
	<polygon class="st0" points="89.85,98.76 101.35,98.76 101.35,77.97 89.85,77.97 89.85,98.76 89.85,98.76 	"/>
	<polygon class="st0" points="236.68,98.76 248.18,98.76 248.18,77.97 236.68,77.97 236.68,98.76 236.68,98.76 	"/>
	<path class="st0" d="M243.05,59H63.33v39.66h19.9V73.75l159.81,0l0,0c4.07,0,7.38-3.3,7.38-7.38C250.42,62.3,247.12,59,243.05,59
		L243.05,59L243.05,59L243.05,59z M220.97,68.72H83.24v-4.7l137.73,0.01l0,0c1.3,0,2.35,1.05,2.35,2.35
		C223.31,67.67,222.26,68.72,220.97,68.72L220.97,68.72L220.97,68.72L220.97,68.72z"/>
	<path class="st0" d="M137.39,91.29c2.35-1.06,3.84-3.43,3.84-6.17c0-3.74-2.94-7.15-7.96-7.15l0,0h-23.66v20.79h11.5v-6.71h3.76
		l3.46,6.71h12.9L137.39,91.29L137.39,91.29L137.39,91.29z M127.67,87.01h-6.56v-4.4l6.56,0.02l0,0c1.21,0,2.19,0.98,2.19,2.19
		S128.88,87.01,127.67,87.01L127.67,87.01L127.67,87.01L127.67,87.01z"/>
	<polygon class="st0" points="148.44,98.76 173.8,98.76 173.8,94.11 159.94,94.11 159.94,91.05 173.8,91.05 173.8,86.04 
		159.94,86.04 159.94,82.98 173.8,82.98 173.8,77.97 148.44,77.97 148.44,98.76 148.44,98.76 	"/>
	<polygon class="st0" points="193.14,77.97 181.64,77.97 181.64,98.76 204.78,98.76 204.78,94.11 193.14,94.11 193.14,77.97 
		193.14,77.97 	"/>
	<polygon class="st0" points="220.24,77.97 208.74,77.97 208.74,98.76 231.89,98.76 231.89,94.11 220.24,94.11 220.24,77.97 
		220.24,77.97 	"/>
</g>
</svg>
