<?xml version="1.0" encoding="utf-8"?>
<!-- Generator: Adobe Illustrator 23.0.1, SVG Export Plug-In . SVG Version: 6.00 Build 0)  -->
<svg version="1.1" id="Слой_1" xmlns="http://www.w3.org/2000/svg" xmlns:xlink="http://www.w3.org/1999/xlink" x="0px" y="0px"
	 viewBox="0 0 222 85" style="enable-background:new 0 0 222 85;" xml:space="preserve">
<g>
	<path d="M157.51,40.51h-3.57c-0.14,0-0.26,0.1-0.26,0.23v2.54c0,0.13,0.12,0.24,0.26,0.24l3.57,0c0.15,0,0.27-0.11,0.27-0.24v-2.54
		C157.78,40.61,157.66,40.51,157.51,40.51z"/>
	<path d="M144.92,40.51h-3.56c-0.15,0-0.27,0.1-0.27,0.23v2.54c0,0.13,0.12,0.24,0.27,0.24l3.56,0c0.14,0,0.26-0.11,0.26-0.24v-2.54
		C145.19,40.61,145.07,40.51,144.92,40.51z"/>
	<path d="M39.45,31.03v21.97h153.8V31.03H39.45z M55.42,41.26c0,0.69-0.63,1.25-1.4,1.25h-3.57c-0.14,0-0.25,0.1-0.26,0.23v1.79
		h-1.14v-1.79c0-0.69,0.62-1.23,1.39-1.24l3.57,0c0.15,0,0.26-0.11,0.26-0.23v-0.52c0-0.13-0.12-0.23-0.26-0.23h-3.57
		c-0.14,0.01-0.25,0.1-0.26,0.23h-1.14c0-0.68,0.62-1.24,1.39-1.24h0.01h3.56c0.77,0,1.4,0.56,1.4,1.25V41.26z M62.92,43.28
		c0,0.69-0.63,1.25-1.4,1.25h-3.56c-0.77,0-1.4-0.6-1.4-1.28v-2.5c0-0.69,0.63-1.24,1.4-1.24h3.56c0.77,0,1.4,0.56,1.4,1.25V43.28z
		 M65.46,41.5l3.56,0c0.77,0,1.4,0.55,1.4,1.24v0.58c0,0.67-0.6,1.18-1.34,1.2l-4.94,0v-1.01h4.88v0c0.15,0,0.27-0.11,0.27-0.24
		v-0.54c0-0.13-0.12-0.23-0.27-0.23h-3.56c-0.77,0-1.4-0.56-1.4-1.25v-0.52c0-0.69,0.63-1.25,1.4-1.25h3.57
		c0.76,0,1.39,0.55,1.39,1.24h-1.14c0-0.12-0.12-0.22-0.26-0.23h-3.57c-0.15,0-0.27,0.11-0.27,0.23v0.52
		C65.19,41.39,65.31,41.5,65.46,41.5z M72.68,44.53h-1.13V39.5h1.13V44.53z M80.16,40.51h-2.6v2.78c0.01,0.12,0.12,0.22,0.26,0.23
		v1.01c-0.76,0-1.39-0.56-1.39-1.24v-2.78h-2.6V39.5h6.34V40.51z M82.43,44.53H81.3V39.5h1.13V44.53z M88.44,42.89
		c-0.62,1.18-1.25,1.63-2.05,1.63l-2.82-5.03h1.24l1.95,3.48c0.12,0.2,0.24,0.22,0.4-0.03l1.94-3.44h1.24L88.44,42.89z M95.91,41.5
		v1.01h-3.82l0,0.77c0,0.13,0.12,0.24,0.27,0.24l3.54,0c0.14,0,0.25-0.1,0.26-0.23h1.13c0,0.68-0.63,1.24-1.39,1.24l-3.54,0
		c-0.78,0-1.4-0.56-1.4-1.25v-2.54c0-0.69,0.62-1.25,1.4-1.25h3.55c0.77,0,1.39,0.55,1.39,1.24h-1.13c0-0.13-0.11-0.23-0.25-0.23
		h-3.55c-0.15,0-0.27,0.11-0.27,0.23l0,0.76H95.91z M108.44,40.51h-2.6v2.78c0,0.12,0.11,0.22,0.26,0.23v1.01
		c-0.77,0-1.39-0.56-1.39-1.24v-2.78h-2.6V39.5h6.34V40.51z M114.52,41.5v1.01h-3.81v0.77c0,0.13,0.12,0.24,0.26,0.24l3.55,0
		c0.14,0,0.25-0.1,0.26-0.23h1.13c0,0.68-0.63,1.24-1.39,1.24l-3.55,0c-0.77,0-1.4-0.56-1.4-1.25v-2.54c0-0.69,0.63-1.25,1.4-1.25
		h3.55c0.77,0,1.38,0.55,1.39,1.24h-1.13c0-0.13-0.12-0.23-0.25-0.23h-3.55c-0.15,0-0.26,0.11-0.26,0.23v0.76H114.52z M118.45,43.51
		l3.54,0c0.14,0,0.26-0.1,0.26-0.23h1.14c-0.01,0.68-0.63,1.24-1.4,1.24l-3.54,0c-0.77,0-1.4-0.56-1.4-1.25v-2.54
		c0-0.69,0.63-1.25,1.4-1.25H122c0.76,0,1.38,0.55,1.39,1.24h-1.14c0-0.13-0.11-0.23-0.25-0.23h-3.55c-0.15,0-0.26,0.11-0.26,0.23
		v2.54C118.19,43.41,118.3,43.51,118.45,43.51z M130.88,43.29c-0.01,0.68-0.63,1.23-1.39,1.24v-1.01c0.14,0,0.25-0.1,0.26-0.23
		v-0.78h-4.09v2.02h-1.14v-3.79c0-0.68,0.63-1.24,1.39-1.24v1.01c-0.14,0.01-0.25,0.1-0.26,0.23v0.76h4.09v-2h1.13V43.29z
		 M138.82,43.27c0,0.61-0.49,1.13-1.13,1.25l-4.18-3.39c-0.18-0.15-0.35,0.05-0.35,0.18v3.22h-1.14v-3.78
		c0-0.61,0.49-1.13,1.14-1.25l4.18,3.39c0.17,0.15,0.36-0.05,0.36-0.18V39.5h1.13V43.27z M146.32,43.28c0,0.69-0.62,1.25-1.4,1.25
		h-3.56c-0.77,0-1.4-0.6-1.4-1.28v-2.5c0-0.69,0.63-1.25,1.4-1.25v0h3.56c0.77,0,1.4,0.56,1.4,1.25V43.28z M151.41,44.53h-2.56
		c-0.77,0-1.4-0.56-1.4-1.25v-2.54c0.01-0.68,0.63-1.24,1.39-1.24v1.01c-0.14,0.01-0.25,0.1-0.26,0.23l0,2.54
		c0,0.13,0.12,0.24,0.26,0.24l2.56,0V44.53z M158.91,43.28c0,0.69-0.63,1.25-1.4,1.25h-3.57c-0.77,0-1.4-0.6-1.4-1.28v-2.5
		c0-0.69,0.63-1.25,1.4-1.25v0h3.57c0.77,0,1.4,0.56,1.4,1.25V43.28z M161.45,43.51h3.56c0.15,0,0.27-0.11,0.27-0.24v-0.54
		c0-0.13-0.12-0.24-0.27-0.24h-2.69V41.5h2.69c0.77,0,1.4,0.55,1.4,1.24v0.54c0,0.69-0.63,1.25-1.4,1.25h-3.56
		c-0.77,0-1.4-0.56-1.4-1.25v-2.54c0-0.69,0.63-1.25,1.4-1.25h3.57c0.77,0,1.39,0.56,1.39,1.24h-1.13c0-0.13-0.12-0.23-0.25-0.23
		l-3.57,0c-0.15,0-0.26,0.11-0.26,0.24v2.54C161.18,43.41,161.3,43.51,161.45,43.51z M168.68,44.53h-1.13V39.5h1.13V44.53z
		 M174.76,41.5v1.01h-3.81v0.77c0,0.13,0.12,0.24,0.26,0.24l3.54,0c0.14,0,0.26-0.1,0.26-0.23h1.14c-0.01,0.68-0.63,1.24-1.4,1.24
		l-3.54,0c-0.77,0-1.4-0.56-1.4-1.25v-2.54c0-0.69,0.63-1.25,1.4-1.25l3.55,0c0.77,0.01,1.39,0.56,1.39,1.24h-1.14
		c0-0.13-0.12-0.23-0.25-0.23h-3.55c-0.14,0-0.26,0.11-0.26,0.23v0.76H174.76z M178.68,41.5l3.57,0c0.77,0,1.4,0.55,1.4,1.24v0.58
		c0,0.67-0.6,1.18-1.34,1.2l-4.94,0v-1.01h4.89v0c0.14,0,0.26-0.11,0.26-0.24v-0.54c0-0.13-0.12-0.24-0.26-0.24h-3.57
		c-0.77,0-1.4-0.56-1.4-1.24v-0.52c0-0.69,0.63-1.25,1.4-1.25h3.57c0.76,0,1.38,0.55,1.39,1.24h-1.14
		c-0.01-0.12-0.12-0.22-0.26-0.23h-3.57c-0.15,0-0.27,0.11-0.27,0.23v0.52C178.41,41.39,178.54,41.5,178.68,41.5z"/>
	<path d="M61.52,40.51h-3.56c-0.15,0-0.27,0.1-0.27,0.23v2.54c0,0.13,0.12,0.24,0.27,0.24l3.56,0c0.15,0,0.26-0.11,0.26-0.24v-2.54
		C61.78,40.61,61.67,40.51,61.52,40.51z"/>
</g>
</svg>
