<?xml version="1.0" encoding="utf-8"?>
<!-- Generator: Adobe Illustrator 23.0.1, SVG Export Plug-In . SVG Version: 6.00 Build 0)  -->
<svg version="1.1" id="Режим_изоляции"
	 xmlns="http://www.w3.org/2000/svg" xmlns:xlink="http://www.w3.org/1999/xlink" x="0px" y="0px" viewBox="0 0 276.39 121.21"
	 style="enable-background:new 0 0 276.39 121.21;" xml:space="preserve">
<style type="text/css">
	.st0{fill-rule:evenodd;clip-rule:evenodd;}
</style>
<g>
	<path d="M130.4,47.77c-0.58,0.07-0.58,0.65,0,0.72c3.53,0.22,4.75,0.14,5.83,2.74l11.38,30.82h1.58l9.43-28.44
		c0.86-2.52,3.89-5.04,6.41-5.18c0.65-0.07,0.58-0.65,0-0.65c-4.1,0-8.14,0-12.24,0c-0.65,0-0.65,0.72,0,0.72
		c4.39-0.14,5.54,3.38,4.82,5.69l-6.55,19.51l-7.78-21.74c-1.08-3.31-1.3-3.02,4.9-3.38c0.43-0.07,0.65-0.65,0-0.79
		C143,47.77,135.52,47.77,130.4,47.77z"/>
	<path d="M65.46,81.76h1.66c0.36-0.29,0.36-0.58,0-0.86c-0.58,0-1.15-0.07-1.66-0.07V81.76L65.46,81.76z M65.46,67.64
		c6.26-0.5,12.53-2.45,12.53-10.08c0-7.99-7.85-9.94-12.53-10.22v1.08c4.68,0.65,6.34,3.02,6.48,8.21c0.07,3.31,0.14,8.06-6.48,9.07
		V67.64z M52.64,78.8c0.22,2.3-3.24,2.09-6.91,2.23c-0.79,0-0.65,0.72-0.07,0.65l19.8,0.07v-0.94c-3.67-0.07-6.19,0.14-6.41-2.02
		V67.79c1.94,0,4.18,0,6.41-0.14V65.7c-1.73,0.22-3.82,0.29-6.48-0.07c0-5.69,0-11.45,0-17.14c2.59-0.22,4.75-0.29,6.48-0.07v-1.08
		c-0.72-0.07-1.3-0.07-1.8-0.07c-6.05,0.14-12.02,0.22-18,0.29c-0.36,0.14-0.36,0.58-0.07,0.72c6.26,0.5,7.06-0.14,7.06,2.38
		C52.64,61.31,52.64,68.15,52.64,78.8z"/>
	<path d="M93.04,64.12c1.44,0.07,3.1,0.29,3.74,0.94c1.58,1.51,1.22,3.82,1.15,7.27c-0.14,2.66-0.58,5.62,1.44,8.21
		c1.37,1.66,3.53,1.73,4.75,1.66c3.46-0.07,4.1-3.89,3.82-7.92c-0.07-0.36-0.58-0.36-0.65,0c0.07,1.15,0.29,6.48-1.8,6.41
		c-2.23-0.07-1.44-4.32-1.8-6.62c-0.07-0.72-0.07-3.24-1.94-6.26c-0.94-1.58-2.74-3.31-5.62-4.03l-0.07-0.14
		c8.21-0.65,9.58-6.26,9.43-7.7c-0.36-2.95-2.3-6.19-6.7-7.56c-1.73-0.58-3.82-0.72-5.76-0.72v0.72c3.38,0.43,6.26,2.02,6.48,7.34
		c0.22,5.98-2.66,7.42-6.48,7.7V64.12L93.04,64.12z M93.04,81.83v-0.79c0.22,0,0.43,0.07,0.58,0.07c0.72,0.07,0.58,0.79,0,0.72
		H93.04z M86.56,79.52V64.19l4.03-0.07c0.5,0,1.44,0,2.45,0V63.4c-2.02,0.14-4.32-0.07-6.48-0.07l-0.07-13.75
		c0.07-1.22,1.87-1.3,2.59-1.3c1.3-0.07,2.66-0.07,3.96,0.07v-0.72c-1.01,0-1.94,0-2.88,0l-16.7,0.14c-0.5,0.07-0.43,0.5,0,0.58
		c6.7,0.58,6.77-0.14,6.84,2.66c0,9,0,17.93,0,26.86c-0.14,3.6-0.65,2.74-6.77,3.24c-0.58,0.14-0.58,0.65,0,0.72h19.51v-0.79
		C89.72,80.89,86.7,81.4,86.56,79.52z"/>
	<path d="M121.84,82.19c0.14,0,0.36,0,0.58,0c5.76,0,15.41-6.26,15.41-18.14c0-9.72-7.27-16.27-15.91-16.7h-0.07v0.86
		c1.87,0.07,3.82,0.65,4.9,1.73c2.09,2.02,3.96,6.19,3.96,14.4c0,4.03,0.07,10.8-2.88,14.54c-1.22,1.66-3.6,2.81-5.98,2.81V82.19z
		 M106.14,64.26c0,11.59,7.85,17.64,15.7,17.93v-0.5c-2.02,0-3.96-0.86-5.4-2.81c-3.1-4.39-3.46-7.42-3.53-14.62
		c0-5.54,0.65-10.58,3.67-14.33c0.94-1.22,3.1-1.8,5.26-1.73v-0.86C114.28,47.12,106.14,54.54,106.14,64.26z"/>
	<path d="M188.29,66.64c0,4.97,0.07,9.86,0.07,14.76c0,1.87,2.95-4.39,3.67-4.18c0.29,0.07,0.65,0.43,1.58,1.3
		c0.79,0.72,2.3,1.8,2.95,2.23c1.58,1.01,3.53,1.37,5.62,1.37c5.18,0,9.58-5.18,9.58-10.73c0-4.18-2.38-8.5-7.63-9.72l-7.63-1.87
		c-2.16-0.58-6.84-2.52-6.62-7.2c0.14-3.17,3.67-4.75,6.62-4.97c1.58-0.07,7.13,0.14,9.72,6.7c0.58,1.3,1.66,4.75,2.02,6.41
		c0.14,0.22,0.5,0.22,0.65,0l0.22-13.18c0-0.14-0.29-0.22-0.36,0c-0.58,0.43-2.52,3.67-2.95,3.74c-1.22,0.14-2.74-4.18-8.93-4.25
		c-5.69,0-9.72,3.74-9.94,9.14c-0.14,5.26,1.87,7.78,9.29,10.15l7.92,2.52c4.25,1.37,4.46,5.54,4.46,6.62
		c-0.07,4.1-4.54,6.05-6.41,6.05c-8.71-0.22-10.94-8.14-13.25-14.9C188.87,66.28,188.36,66.35,188.29,66.64z"/>
	<path d="M218.17,78.95c-0.07,2.02-0.58,1.94-6.98,2.3c-0.58,0.07-0.58,0.65,0,0.72h20.52c0.5-0.07,0.43-0.65-0.07-0.72
		c-5.18-0.36-6.98,0.07-6.98-2.38c0-9.36-0.07-18.72-0.07-28.08c0.14-2.38,0.94-1.66,6.62-2.23c0.86-0.07,0.94-0.72,0-0.72
		l-19.94,0.07c-0.65-0.07-0.58,0.65,0,0.65c4.25,0.29,6.84-0.22,6.91,2.09V78.95z"/>
	<path d="M175.19,79.24c0.86,2.09-2.45,2.23-6.12,2.23c-0.72,0-0.86,0.79,0,0.72h18.14c0.58,0,0.36-0.72,0-0.72
		c-2.38-0.14-4.39,0.14-5.54-1.58c-3.82-10.58-7.7-21.17-11.59-31.75c-0.14-0.86-1.15-0.86-1.44,0l-1.87,5.26v2.59l4.61,12.6
		c0.22,0.5,0.36,0.79-0.86,0.72h-3.74v0.79h4.97L175.19,79.24z M166.76,53.39l-7.85,21.96c-0.58,1.73-2.52,5.9-6.48,6.05
		c-0.79,0-0.79,0.65-0.07,0.65h12.1c0.43,0,0.43-0.5,0-0.58c-2.59,0.14-4.75-1.37-5.11-3.31c-0.22-1.15,0.29-2.74,0.58-3.31
		l1.66-4.75h5.18V69.3h-3.6c-1.08,0-1.37-0.22-1.15-0.72l4.68-12.67l0.07,0.07V53.39z"/>
	<path class="st0" d="M138.25,86.51l103.54-0.43l0.07-43.92L138.25,42.3v1.22l102.67-0.43L241,85.57l-102.74,0.22V86.51z
		 M34.36,42.44v44.5l103.9-0.43v-0.72L35.44,86V43.96l102.82-0.43V42.3L37.38,42.44H34.36z"/>
	<path class="st0" d="M138.11,89.32h105.98V40.07H138.11v1.58h104.47l-0.07,45.22l-104.4,0.29V89.32z M31.76,40.07v49.25h106.34
		v-2.16L33.78,87.44l-0.22-45.79h104.54v-1.58h-94.9H31.76z"/>
</g>
</svg>
