<?xml version="1.0" encoding="utf-8"?>
<!-- Generator: Adobe Illustrator 23.0.1, SVG Export Plug-In . SVG Version: 6.00 Build 0)  -->
<svg version="1.1" id="Warstwa_1" xmlns="http://www.w3.org/2000/svg" xmlns:xlink="http://www.w3.org/1999/xlink" x="0px" y="0px"
	 viewBox="0 0 192.76 192.76" style="enable-background:new 0 0 192.76 192.76;" xml:space="preserve">
<style type="text/css">
	.st0{fill-rule:evenodd;clip-rule:evenodd;}
</style>
<path class="st0" d="M103.5,95.92c0,0-1.56-0.96-2.52-1.34c0,0-2.98-1.38-3.58-2.04c0,0-1.16-1.1-0.48-2.37c0,0,0.29-0.83,1.51-0.83
	c0,0,1.6,0.09,1.6,1.4v1.86h5.73l-0.01-2.73c0,0,0.44-4.47-6.75-4.67c0,0-5.66-0.37-7.28,2.68c0,0-0.64,0.68-0.64,3.05v1.71
	c0,0-0.07,1.97,0.94,3.25c0,0,0.57,0.83,1.97,1.75c0,0,2.85,1.54,4.56,2.41c0,0,1.73,0.99,1.5,2.55c0,0-0.14,1.61-1.81,1.54
	c0,0-1.53-0.07-1.53-1.65v-1.85h-6.11v2.69c0,0-0.17,5.15,7.68,5.15c0,0,7.5,0.15,7.85-5.29v-2.19
	C106.16,101.01,106.42,97.67,103.5,95.92L103.5,95.92z"/>
<polygon class="st0" points="74.15,85.84 72.23,97.87 71.78,97.87 69.95,85.94 60.37,85.94 59.89,107.73 65.56,107.73 65.63,91.32 
	66.07,91.32 69.08,107.73 75.04,107.73 78.01,91.32 78.41,91.32 78.55,107.73 84.25,107.73 83.63,85.84 74.15,85.84 "/>
<polygon class="st0" points="40.39,85.93 36.62,107.71 42.72,107.71 44.96,90.82 45.46,90.82 47.69,107.71 53.8,107.71 50.03,85.93 
	40.39,85.93 "/>
<path class="st0" d="M168.49,95.62v3.21h1.57v3.45c0,1.69-1.44,1.72-1.44,1.72c-1.75,0-1.69-1.6-1.69-1.6V90.47
	c0-1.23,1.55-1.29,1.55-1.29c1.49,0,1.5,1.47,1.5,1.47v1.81h5.75c0.19-3.54-0.52-4.4-0.52-4.4c-1.43-3.2-6.82-3.03-6.82-3.03
	c-8.29,0-7.37,6.36-7.37,6.36v11.54c0.18,5.96,8.34,5.36,8.48,5.35c3.63-0.4,4.73-1.55,4.73-1.55c1.01-0.75,1.27-1.79,1.27-1.79
	c0.29-0.61,0.36-2.53,0.36-2.53v-6.78H168.49L168.49,95.62z"/>
<polygon class="st0" points="149.44,99.17 149.19,99.17 143.36,85.84 136.38,85.84 136.38,107.74 142.06,107.74 141.72,94.41 
	141.97,94.41 148.01,107.74 154.78,107.74 154.78,85.84 149.03,85.84 149.44,99.17 "/>
<path class="st0" d="M122.51,102.28c0,0,0.08,1.8-1.58,1.8c0,0-1.75,0.09-1.75-1.75l-0.02-16.47h-6.23v16.34
	c0,0-0.64,6.18,8.09,6.18c0,0,7.58,0.09,7.58-5.9V85.86h-6.09V102.28L122.51,102.28z"/>
<path class="st0" d="M28.51,95.92c0,0-1.56-0.96-2.52-1.34c0,0-2.98-1.38-3.57-2.04c0,0-1.16-1.1-0.48-2.37c0,0,0.28-0.83,1.51-0.83
	c0,0,1.6,0.09,1.6,1.4v1.86h5.74l-0.01-2.73c0,0,0.44-4.47-6.75-4.67c0,0-0.54-0.04-1.34,0c0,0-4.36,0.23-5.91,2.62
	c-0.01,0.02-0.02,0.03-0.03,0.05c0,0-0.64,0.68-0.64,3.05v1.71c0,0-0.07,1.97,0.94,3.25c0,0,0.57,0.83,1.97,1.75
	c0,0,2.85,1.54,4.56,2.41c0,0,1.73,0.99,1.5,2.56c0,0-0.14,1.61-1.81,1.54c0,0-1.53-0.07-1.53-1.65v-1.86h-6.11v2.7
	c0,0-0.17,5.15,7.68,5.15c0,0,7.5,0.15,7.85-5.29v-2.19C31.17,101.01,31.43,97.67,28.51,95.92L28.51,95.92z"/>
</svg>
