<?xml version="1.0" encoding="utf-8"?>
<!-- Generator: Adobe Illustrator 23.0.1, SVG Export Plug-In . SVG Version: 6.00 Build 0)  -->
<svg version="1.1" id="Layer_1" xmlns="http://www.w3.org/2000/svg" xmlns:xlink="http://www.w3.org/1999/xlink" x="0px" y="0px"
	 viewBox="0 0 24 30" style="enable-background:new 0 0 24 30;" xml:space="preserve">
<style type="text/css">
	.st0{stroke:#000000;stroke-width:0.25;stroke-miterlimit:10;}
</style>
<g>
	<path class="st0" d="M10.68,17.85c1.79,0,3.42-0.66,4.68-1.75l4.4,4.27c0.08,0.08,0.19,0.12,0.3,0.12c0.11,0,0.23-0.04,0.31-0.13
		c0.17-0.17,0.16-0.45-0.01-0.61l-4.38-4.25c1.16-1.27,1.87-2.97,1.87-4.82c0-3.95-3.22-7.17-7.17-7.17S3.5,6.72,3.5,10.67
		S6.72,17.85,10.68,17.85z M10.68,4.37c3.48,0,6.3,2.83,6.3,6.3s-2.83,6.3-6.3,6.3s-6.3-2.83-6.3-6.3S7.2,4.37,10.68,4.37z"/>
</g>
</svg>
