<?xml version="1.0" encoding="utf-8"?>
<!-- Generator: Adobe Illustrator 23.0.1, SVG Export Plug-In . SVG Version: 6.00 Build 0)  -->
<svg version="1.1" id="Режим_изоляции"
	 xmlns="http://www.w3.org/2000/svg" xmlns:xlink="http://www.w3.org/1999/xlink" x="0px" y="0px" viewBox="0 0 269.29 114"
	 style="enable-background:new 0 0 269.29 114;" xml:space="preserve">
<style type="text/css">
	.st0{fill-rule:evenodd;clip-rule:evenodd;}
</style>
<g>
	<path class="st0" d="M114.26,47.53h4.59v11.02c0,1.01,0.58,1.43,1.57,1.43h7.82c0.98,0,1.57-0.41,1.57-1.43V47.53h4.59v11.75
		c0,2.49-2.14,4.38-4.59,4.38h-10.95c-2.44,0-4.59-1.9-4.59-4.38V47.53L114.26,47.53z"/>
	<path class="st0" d="M92.5,58.69h4.57c0.08,0.92,0.62,1.3,1.52,1.3h8.39c0.78,0,1.21-0.67,1.21-1.39c0-0.97-0.71-1.48-1.63-1.48
		h-9.15c-3.01,0-5.06-1.47-5.06-4.64c0-1.65,0.65-3.4,2.12-4.29c0.92-0.56,2.04-0.65,3.1-0.65h10.78c2.33,0,4.21,1.65,4.19,4.03
		v0.85h-4.72c-0.04-0.73-0.48-1.21-1.25-1.21h-7.96c-0.81,0-1.49,0.41-1.49,1.31c0,0.89,0.69,1.22,1.48,1.22h9.75
		c3.15,0,4.78,2.11,4.78,5.17c0,2.94-1.36,4.76-4.41,4.76H97.07c-2.66,0-4.54-1.07-4.56-3.9L92.5,58.69L92.5,58.69z"/>
	<path class="st0" d="M201.11,47.53h4.6v11.02c0,1.01,0.58,1.43,1.57,1.43h7.82c0.98,0,1.57-0.41,1.57-1.43V47.53h4.59v11.75
		c0,2.48-2.15,4.38-4.59,4.38h-10.95c-2.45,0-4.6-1.89-4.6-4.38V47.53L201.11,47.53z"/>
	<path class="st0" d="M162.41,60.48l-1.8,3.19h-5.1l8.76-16.13h5.99l8.76,16.13h-5.1l-1.8-3.19H162.41L162.41,60.48z M167.25,51.62
		l-2.89,5.38h5.8L167.25,51.62L167.25,51.62z"/>
	<path class="st0" d="M136.14,47.53h14.14c3.03,0,5.28,1.06,5.28,4.46c0,1.47-0.58,2.75-1.88,3.48c1.43,0.76,2.23,2.16,2.23,3.78
		c0,2.28-1.46,4.42-3.91,4.42h-15.87V47.53L136.14,47.53z M140.83,59.98h8.72c0.85,0,1.64-0.46,1.64-1.39c0-0.92-0.8-1.39-1.64-1.39
		h-8.72V59.98L140.83,59.98z M140.83,53.86h8.72c0.79,0,1.28-0.55,1.28-1.32c0-0.77-0.49-1.34-1.28-1.34h-8.72V53.86L140.83,53.86z"
		/>
	<path class="st0" d="M179.89,47.53h15.38c3.07,0,4.55,2.51,4.55,5.3c0,1.81-0.66,3.51-2.32,4.37c1.62,0.79,2.36,2.03,2.36,3.84
		v2.61h-4.59v-2.61c0-1.53-0.85-2.08-2.33-2.08h-8.31v4.7h-4.73V47.53L179.89,47.53z M184.62,55.3h8.61c1.11,0,1.86-0.99,1.86-2.04
		c0-1.34-0.99-2.05-2.28-2.05h-8.18V55.3L184.62,55.3z"/>
	<path class="st0" d="M80.7,47.29c-4.34-2.75-9.79-3.79-14.88-3.79c-4.53,0-9.31,0.83-13.37,2.93c-3.41,1.77-6.95,4.78-6.95,8.96
		c0,3.55,2.63,6.28,5.45,8.09c4.34,2.76,9.78,3.79,14.87,3.79c4.54,0,9.32-0.83,13.37-2.93c3.4-1.77,6.95-4.79,6.95-8.95
		C86.15,51.82,83.52,49.09,80.7,47.29z M79.72,62.52c-4.1,2.47-9.2,3.36-13.94,3.36c-4.22,0-8.69-0.72-12.51-2.59
		c-3.09-1.52-6.54-4.18-6.54-7.97c0-3.23,2.55-5.66,5.13-7.2c4.1-2.47,9.2-3.36,13.93-3.36c4.23,0,8.7,0.72,12.52,2.59
		c3.1,1.51,6.54,4.17,6.54,7.97C84.85,58.55,82.29,60.97,79.72,62.52z"/>
	<polygon class="st0" points="47.93,52.69 55.72,51.37 58.06,46.28 60.39,51.37 68.18,52.69 60.39,54.03 58.06,59.13 55.72,54.03 
		47.93,52.69 	"/>
	<polygon class="st0" points="65.05,56.57 68.48,55.97 69.51,53.67 70.53,55.97 73.97,56.57 70.53,57.16 69.51,59.46 68.48,57.16 
		65.05,56.57 	"/>
	<polygon class="st0" points="72.15,50.44 75.59,49.84 76.61,47.53 77.64,49.84 81.07,50.44 77.64,51.04 76.61,53.34 75.59,51.04 
		72.15,50.44 	"/>
	<polygon class="st0" points="68.48,61.32 71.9,60.73 72.93,58.42 73.97,60.73 77.4,61.32 73.97,61.93 72.93,64.23 71.9,61.93 
		68.48,61.32 	"/>
	<polygon class="st0" points="57.93,62.15 61.37,61.56 62.4,59.25 63.43,61.56 66.86,62.15 63.43,62.76 62.4,65.06 61.37,62.76 
		57.93,62.15 	"/>
	<polygon class="st0" points="75.2,56.47 78.62,55.87 79.65,53.57 80.68,55.87 84.11,56.47 80.68,57.07 79.65,59.37 78.62,57.07 
		75.2,56.47 	"/>
</g>
</svg>
