<?xml version="1.0" encoding="utf-8"?>
<!-- Generator: Adobe Illustrator 23.0.1, SVG Export Plug-In . SVG Version: 6.00 Build 0)  -->
<svg version="1.1" id="Layer_1" xmlns="http://www.w3.org/2000/svg" xmlns:xlink="http://www.w3.org/1999/xlink" x="0px" y="0px"
	 viewBox="0 0 523 250" style="enable-background:new 0 0 523 250;" xml:space="preserve">
<style type="text/css">
	.st0{stroke:#878787;stroke-width:0.253;stroke-miterlimit:3.8637;}
</style>
<g>
	<path d="M302.62,183.35c-0.04-0.35-1.75-61.99-1.75-61.99c1.06-4.94,3.78-7.09,6.79-8.45l19.47-7.96c3.71-1.5,7.73,4.14,3.48,7.07
		c-3.92,2.69-13.64,6.45-17.86,23.54c-0.68,3.2-1.53,40.35-1.85,47.79C306.54,187.73,302.62,183.35,302.62,183.35L302.62,183.35z"/>
	<path d="M177.22,84.78c3.81,0,6.9,3.09,6.9,6.89c0,3.81-3.09,6.9-6.9,6.9c-3.8,0-6.89-3.09-6.89-6.9
		C170.32,87.87,173.42,84.78,177.22,84.78L177.22,84.78z M173.09,183.36c-0.06-0.58-2.41-61.31-2.41-61.31l-0.39-7.63
		c1.81-1.28,3.83-2.09,6.84-2.09c3.1,0,5.18,0.78,6.98,2.11l-0.31,7.61c-0.48,8.09-2.37,60.75-2.42,61.3
		C177.04,187.73,173.09,183.36,173.09,183.36L173.09,183.36z"/>
	<path d="M141.77,75.24c0-0.06-0.87-2.2-2.37-2.58c-0.97-0.24-2.24-0.22-3.92,0.99c-9.31,27.65-24.27,64.96-35.42,90.47
		c-2.78,5.62-5.87,5.68-8.74,0c-11.06-25.34-26.03-63.1-35.28-90.52c-0.12-0.25-2.03-1.43-3.68-1c-1.57,0.37-2.37,2.54-2.37,2.6
		c4.42,17.26,31.46,97.51,35.11,105.22c4.15,8.77,16.81,8.77,21.13,0C109.96,172.88,136.58,92.22,141.77,75.24L141.77,75.24z"/>
	<path d="M354.12,184.25c5.19-16.98,31.81-97.63,35.53-105.2c4.32-8.77,16.98-8.77,21.13,0.01c3.65,7.72,30.69,87.96,35.11,105.22
		c0,0.07-0.8,2.23-2.38,2.6c-1.64,0.44-3.56-0.75-3.68-1c-4.12-12.21-8.98-24.61-14.51-38.9c-1.31-3.47-3.57-4.95-7.27-5.29
		l-26.47-1.53c-5.33-0.38-4.33-6.46-0.79-6.82l25.58-1.99c2.83-0.17,2.26-1.64,1.27-4.68c-0.37-1.26-4.83-11.91-13.09-31.3
		c-2.87-5.68-5.96-5.62-8.73,0c-11.14,25.51-26.11,62.82-35.42,90.47c-1.68,1.21-2.95,1.23-3.92,0.99
		C354.99,186.45,354.12,184.31,354.12,184.25L354.12,184.25z"/>
	<path d="M233.58,82.43c1.93-1.28,3.43-2.08,6.64-2.08c3.11,0,4.61,0.86,6.55,2.19c0,0-0.2,22.88-0.01,26.7l15.62-6.31
		c5.48-2.2,8.12,4.98,4.18,7.86c-4.42,3.23-15.67,7.28-20.12,27.92c-0.55,3.03-2.29,44.56-2.33,44.95c-4.15,4.18-7.92,0-7.92,0
		c-0.62-15.63-1.14-31.29-1.56-46.97c-0.47-9.16-2.35-13.63-3.1-15.08c-0.11-0.17-0.22-0.35-0.31-0.54
		c-0.33-0.67-0.51-1.42-0.51-2.22c0-2.2,1.41-4.08,3.39-4.76C233.87,103.56,233.7,93,233.58,82.43L233.58,82.43z"/>
	<path d="M445.89,81.37c0-4.73,3.77-8.53,8.46-8.53c4.71,0,8.47,3.8,8.47,8.53c0,4.71-3.76,8.49-8.47,8.49
		C449.66,89.87,445.89,86.09,445.89,81.37L445.89,81.37z M461.86,81.37c0-4.33-3.24-7.62-7.51-7.62c-4.24,0-7.48,3.29-7.48,7.62
		c0,4.35,3.24,7.6,7.48,7.6C458.62,88.98,461.86,85.72,461.86,81.37L461.86,81.37z M451.5,76h2.98c2.07,0,3.19,1.38,3.19,2.85
		c0,1.46-1.1,2.6-2.94,2.72h-0.18c0.41,0.31,0.73,0.71,1.12,1.27l2.79,3.79h-1.35l-2.75-3.85c-0.62-0.86-0.88-1.13-1.77-1.13v4.99
		h-1.1V76L451.5,76z M454.01,80.75c1.42,0,2.52-0.54,2.52-1.87c0-1.06-0.71-1.9-2.25-1.9h-1.67v3.78H454.01L454.01,80.75z
		 M454.01,80.75c1.42,0,2.52-0.54,2.52-1.87c0-1.06-0.71-1.9-2.25-1.9h-1.67v3.78H454.01L454.01,80.75z M451.5,76h2.98
		c2.07,0,3.19,1.38,3.19,2.85c0,1.46-1.1,2.6-2.94,2.72h-0.18c0.41,0.31,0.73,0.71,1.12,1.27l2.79,3.79h-1.35l-2.75-3.85
		c-0.62-0.86-0.88-1.13-1.77-1.13v4.99h-1.1V76L451.5,76z M461.86,81.37c0-4.33-3.24-7.62-7.51-7.62c-4.24,0-7.48,3.29-7.48,7.62
		c0,4.35,3.24,7.6,7.48,7.6C458.62,88.98,461.86,85.72,461.86,81.37L461.86,81.37z M445.89,81.37c0-4.73,3.77-8.53,8.46-8.53
		c4.71,0,8.47,3.8,8.47,8.53c0,4.71-3.76,8.49-8.47,8.49C449.66,89.87,445.89,86.09,445.89,81.37L445.89,81.37z"/>
	<path class="st0" d="M445.89,81.37c0-4.73,3.77-8.53,8.46-8.53c4.71,0,8.47,3.8,8.47,8.53c0,4.71-3.76,8.49-8.47,8.49
		C449.66,89.87,445.89,86.09,445.89,81.37L445.89,81.37z M461.86,81.37c0-4.33-3.24-7.62-7.51-7.62c-4.24,0-7.48,3.29-7.48,7.62
		c0,4.35,3.24,7.6,7.48,7.6C458.62,88.98,461.86,85.72,461.86,81.37L461.86,81.37z M451.5,76h2.98c2.07,0,3.19,1.38,3.19,2.85
		c0,1.46-1.1,2.6-2.94,2.72h-0.18c0.41,0.31,0.73,0.71,1.12,1.27l2.79,3.79h-1.35l-2.75-3.85c-0.62-0.86-0.88-1.13-1.77-1.13v4.99
		h-1.1V76L451.5,76z M454.01,80.75c1.42,0,2.52-0.54,2.52-1.87c0-1.06-0.71-1.9-2.25-1.9h-1.67v3.78H454.01L454.01,80.75z
		 M454.01,80.75c1.42,0,2.52-0.54,2.52-1.87c0-1.06-0.71-1.9-2.25-1.9h-1.67v3.78H454.01L454.01,80.75z M451.5,76h2.98
		c2.07,0,3.19,1.38,3.19,2.85c0,1.46-1.1,2.6-2.94,2.72h-0.18c0.41,0.31,0.73,0.71,1.12,1.27l2.79,3.79h-1.35l-2.75-3.85
		c-0.62-0.86-0.88-1.13-1.77-1.13v4.99h-1.1V76L451.5,76z M461.86,81.37c0-4.33-3.24-7.62-7.51-7.62c-4.24,0-7.48,3.29-7.48,7.62
		c0,4.35,3.24,7.6,7.48,7.6C458.62,88.98,461.86,85.72,461.86,81.37L461.86,81.37z M445.89,81.37c0-4.73,3.77-8.53,8.46-8.53
		c4.71,0,8.47,3.8,8.47,8.53c0,4.71-3.76,8.49-8.47,8.49C449.66,89.87,445.89,86.09,445.89,81.37L445.89,81.37z"/>
</g>
</svg>
