<?xml version="1.0" encoding="utf-8"?>
<!-- Generator: Adobe Illustrator 23.0.1, SVG Export Plug-In . SVG Version: 6.00 Build 0)  -->
<svg version="1.1" id="Capa_1" xmlns="http://www.w3.org/2000/svg" xmlns:xlink="http://www.w3.org/1999/xlink" x="0px" y="0px"
	 viewBox="0 0 116.22 116.22" style="enable-background:new 0 0 116.22 116.22;" xml:space="preserve">
<path d="M58.11,1.42C26.8,1.42,1.42,26.8,1.42,58.11S26.8,114.8,58.11,114.8c31.31,0,56.69-25.38,56.69-56.69S89.42,1.42,58.11,1.42
	z M90.59,82.98l-9.94,0.14c0,0-2.14,0.42-4.95-1.51c-3.72-2.55-7.23-9.19-9.96-8.32c-2.77,0.88-2.68,6.85-2.68,6.85
	s0.02,1.28-0.61,1.95c-0.69,0.74-2.03,0.89-2.03,0.89h-4.45c0,0-9.82,0.59-18.46-8.41c-9.43-9.82-17.76-29.3-17.76-29.3
	s-0.48-1.28,0.04-1.89c0.59-0.69,2.18-0.74,2.18-0.74l10.64-0.07c0,0,1,0.17,1.72,0.69c0.59,0.43,0.92,1.25,0.92,1.25
	s1.72,4.35,4,8.28c4.44,7.68,6.51,9.36,8.02,8.54c2.2-1.2,1.54-10.85,1.54-10.85s0.04-3.5-1.11-5.07c-0.89-1.21-2.56-1.56-3.3-1.66
	c-0.6-0.08,0.38-1.47,1.66-2.09c1.91-0.94,5.29-0.99,9.29-0.95c3.11,0.03,4.01,0.23,5.22,0.52c3.67,0.89,2.42,4.31,2.42,12.51
	c0,2.63-0.47,6.32,1.42,7.55c0.81,0.53,2.81,0.08,7.79-8.38c2.36-4.01,4.13-8.73,4.13-8.73s0.39-0.84,0.99-1.2
	c0.62-0.37,1.45-0.25,1.45-0.25l11.19-0.07c0,0,3.36-0.4,3.91,1.12c0.57,1.59-1.26,5.31-5.83,11.41
	c-7.51,10.01-8.34,9.07-2.11,14.86c5.96,5.53,7.19,8.22,7.39,8.55C95.79,82.65,90.59,82.98,90.59,82.98z"/>
</svg>
